<svg id="Group_3" data-name="Group 3" xmlns="http://www.w3.org/2000/svg" width="34.634" height="34.634" viewBox="0 0 34.634 34.634">
  <path id="Path_67" data-name="Path 67" d="M296.317-55.757A17.317,17.317,0,0,0,279-38.44a17.317,17.317,0,0,0,17.317,17.317A17.317,17.317,0,0,0,313.634-38.44,17.317,17.317,0,0,0,296.317-55.757Zm4.671,28.888h-9.341a6.909,6.909,0,0,1-6.9-6.9v-9.341a6.909,6.909,0,0,1,6.9-6.9h9.341a6.909,6.909,0,0,1,6.9,6.9v9.341A6.909,6.909,0,0,1,300.987-26.869Z" transform="translate(-279 55.757)" fill="#fff"/>
  <path id="Path_68" data-name="Path 68" d="M299.566-49.757h-9.341A5.231,5.231,0,0,0,285-44.532v9.341a5.231,5.231,0,0,0,5.225,5.225h9.341a5.231,5.231,0,0,0,5.225-5.225v-9.341A5.231,5.231,0,0,0,299.566-49.757ZM288.81-32.465a1.028,1.028,0,0,1-1.028-1.028,1.028,1.028,0,0,1,1.028-1.028,1.028,1.028,0,0,1,1.028,1.028A1.028,1.028,0,0,1,288.81-32.465Zm6.086-1.657a5.745,5.745,0,0,1-5.739-5.739A5.746,5.746,0,0,1,294.9-45.6a5.746,5.746,0,0,1,5.739,5.741A5.745,5.745,0,0,1,294.9-34.122Z" transform="translate(-277.578 57.179)" fill="#fff"/>
  <path id="Path_69" data-name="Path 69" d="M293.778-45.042a4.067,4.067,0,0,0-4.063,4.063,4.068,4.068,0,0,0,4.063,4.063,4.068,4.068,0,0,0,4.063-4.063A4.067,4.067,0,0,0,293.778-45.042Z" transform="translate(-276.461 58.296)" fill="#fff"/>
</svg>
