<svg id="twitter" xmlns="http://www.w3.org/2000/svg" width="34.634" height="34.634" viewBox="0 0 34.634 34.634">
  <path id="パス_3794" data-name="パス 3794" d="M378.606-55.757A17.317,17.317,0,0,0,361.289-38.44a17.317,17.317,0,0,0,17.317,17.317A17.317,17.317,0,0,0,395.923-38.44,17.317,17.317,0,0,0,378.606-55.757Zm10.1,13.015c.014.209.014.419.014.63A13.757,13.757,0,0,1,375.06-28.259h-.194a13.782,13.782,0,0,1-7.462-2.183,10.085,10.085,0,0,0,1.159.071,9.769,9.769,0,0,0,6.046-2.088,4.875,4.875,0,0,1-4.548-3.38,4.853,4.853,0,0,0,2.2-.083,4.872,4.872,0,0,1-3.9-4.772v-.062a4.839,4.839,0,0,0,2.209.61,4.871,4.871,0,0,1-1.507-6.5,13.82,13.82,0,0,0,10.033,5.086A4.876,4.876,0,0,1,380.5-46.21a4.873,4.873,0,0,1,6.888.212,9.778,9.778,0,0,0,3.092-1.181,4.877,4.877,0,0,1-2.14,2.693,9.764,9.764,0,0,0,2.8-.767A9.9,9.9,0,0,1,388.705-42.742Z" transform="translate(-361.289 55.757)" fill="#fff"/>
</svg>
