<svg id="Group_2" data-name="Group 2" xmlns="http://www.w3.org/2000/svg" width="34.634" height="34.634" viewBox="0 0 34.634 34.634">
  <path id="Path_63" data-name="Path 63" d="M337.462-55.757h0A17.317,17.317,0,0,0,320.144-38.44a17.317,17.317,0,0,0,17.317,17.317h0A17.316,17.316,0,0,0,354.778-38.44,17.316,17.316,0,0,0,337.462-55.757Zm9.068,21.451a37.292,37.292,0,0,1-9.072,6.7c-1.233.518-1.051-.331-1-.623.03-.173.165-.988.165-.988a2.364,2.364,0,0,0-.037-1.044c-.13-.322-.641-.489-1.017-.569-5.549-.733-9.658-4.612-9.658-9.245,0-5.167,5.181-9.371,11.548-9.371s11.547,4.2,11.547,9.371a8.339,8.339,0,0,1-2.475,5.765Z" transform="translate(-320.144 55.757)" fill="#fff"/>
  <path id="Path_64" data-name="Path 64" d="M341.035-45.1h-3.243a.221.221,0,0,0-.221.22v0h0v5.031h0v0a.221.221,0,0,0,.221.221h3.243a.221.221,0,0,0,.221-.221v-.819a.222.222,0,0,0-.221-.22h-2.2v-.85h2.2a.221.221,0,0,0,.221-.221v-.819a.222.222,0,0,0-.221-.22h-2.2v-.85h2.2a.221.221,0,0,0,.221-.221v-.819A.222.222,0,0,0,341.035-45.1Z" transform="translate(-316.016 58.283)" fill="#fff"/>
  <path id="Path_65" data-name="Path 65" d="M331.334-40.875h-2.205v-4a.221.221,0,0,0-.22-.22h-.819a.221.221,0,0,0-.22.22v5.035h0v0a.221.221,0,0,0,.22.221h3.244a.221.221,0,0,0,.22-.221v-.819A.221.221,0,0,0,331.334-40.875Z" transform="translate(-318.314 58.283)" fill="#fff"/>
  <rect id="Rectangle_14" data-name="Rectangle 14" width="1.26" height="5.48" rx="0.178" transform="translate(13.933 13.188)" fill="#fff"/>
  <path id="Path_66" data-name="Path 66" d="M337.631-45.1h-.819a.221.221,0,0,0-.221.22v2.993l-2.306-3.113-.017-.023h0l-.014-.014,0,0-.012-.01-.006,0-.011-.007-.007,0-.011-.006-.007,0-.014,0-.006,0-.014,0h-.007l-.014,0h-.855a.221.221,0,0,0-.221.22v5.039a.221.221,0,0,0,.221.221h.819a.221.221,0,0,0,.22-.221v-2.992l2.308,3.118a.242.242,0,0,0,.057.056h0l.015.009.006,0,.01,0,.011,0,.007,0,.015,0h0a.288.288,0,0,0,.057.007h.815a.221.221,0,0,0,.22-.221v-5.039A.221.221,0,0,0,337.631-45.1Z" transform="translate(-317.083 58.283)" fill="#fff"/>
</svg>
